<?xml version="1.0" encoding="UTF-8"?>
<svg xmlns="http://www.w3.org/2000/svg" width="952" height="132" viewBox="0 0 952 132">
  <rect width="100%" height="100%" fill="#0d1117" rx="8"/>
  <g id="edges" stroke-linecap="round">
    <line x1="932" y1="66" x2="916" y2="66" stroke="#2ea043" stroke-width="1.6" opacity="0.7"/>
    <line x1="916" y1="66" x2="900" y2="66" stroke="#2ea043" stroke-width="1.6" opacity="0.7"/>
    <line x1="900" y1="66" x2="884" y2="66" stroke="#2ea043" stroke-width="1.6" opacity="0.7"/>
    <line x1="884" y1="66" x2="868" y2="66" stroke="#2ea043" stroke-width="1.6" opacity="0.7"/>
    <line x1="868" y1="66" x2="852" y2="66" stroke="#2ea043" stroke-width="1.6" opacity="0.7"/>
    <line x1="852" y1="66" x2="836" y2="66" stroke="#2ea043" stroke-width="1.6" opacity="0.7"/>
    <line x1="836" y1="66" x2="820" y2="66" stroke="#2ea043" stroke-width="1.6" opacity="0.7"/>
    <line x1="820" y1="66" x2="804" y2="66" stroke="#2ea043" stroke-width="1.6" opacity="0.7"/>
    <line x1="804" y1="66" x2="788" y2="66" stroke="#2ea043" stroke-width="1.6" opacity="0.7"/>
    <line x1="788" y1="66" x2="772" y2="66" stroke="#2ea043" stroke-width="1.6" opacity="0.7"/>
    <line x1="772" y1="66" x2="756" y2="66" stroke="#2ea043" stroke-width="1.6" opacity="0.7"/>
    <line x1="756" y1="66" x2="740" y2="66" stroke="#2ea043" stroke-width="1.6" opacity="0.7"/>
    <line x1="740" y1="66" x2="724" y2="66" stroke="#2ea043" stroke-width="1.6" opacity="0.7"/>
    <line x1="724" y1="66" x2="708" y2="66" stroke="#2ea043" stroke-width="1.6" opacity="0.7"/>
    <line x1="708" y1="66" x2="692" y2="66" stroke="#2ea043" stroke-width="1.6" opacity="0.7"/>
    <line x1="692" y1="66" x2="676" y2="66" stroke="#2ea043" stroke-width="1.6" opacity="0.7"/>
    <line x1="676" y1="66" x2="660" y2="66" stroke="#2ea043" stroke-width="1.6" opacity="0.7"/>
    <line x1="660" y1="66" x2="644" y2="66" stroke="#2ea043" stroke-width="1.6" opacity="0.7"/>
    <line x1="644" y1="66" x2="628" y2="66" stroke="#2ea043" stroke-width="1.6" opacity="0.7"/>
    <line x1="628" y1="66" x2="612" y2="66" stroke="#2ea043" stroke-width="1.6" opacity="0.7"/>
    <line x1="612" y1="66" x2="596" y2="66" stroke="#2ea043" stroke-width="1.6" opacity="0.7"/>
    <line x1="596" y1="66" x2="580" y2="66" stroke="#2ea043" stroke-width="1.6" opacity="0.7"/>
    <line x1="580" y1="66" x2="548" y2="66" stroke="#2ea043" stroke-width="1.6" opacity="0.7"/>
    <path d="M 580 66 C 572 66, 572 86, 564 86" fill="none" stroke="#388bfd" stroke-width="1.4" opacity="0.65"/>
    <path d="M 564 86 C 556 86, 556 66, 548 66" fill="none" stroke="#388bfd" stroke-width="1.4" opacity="0.65"/>
    <line x1="548" y1="66" x2="532" y2="66" stroke="#2ea043" stroke-width="1.6" opacity="0.7"/>
    <line x1="532" y1="66" x2="516" y2="66" stroke="#2ea043" stroke-width="1.6" opacity="0.7"/>
    <line x1="516" y1="66" x2="500" y2="66" stroke="#2ea043" stroke-width="1.6" opacity="0.7"/>
    <line x1="500" y1="66" x2="484" y2="66" stroke="#2ea043" stroke-width="1.6" opacity="0.7"/>
    <line x1="484" y1="66" x2="468" y2="66" stroke="#2ea043" stroke-width="1.6" opacity="0.7"/>
    <line x1="468" y1="66" x2="452" y2="66" stroke="#2ea043" stroke-width="1.6" opacity="0.7"/>
    <line x1="452" y1="66" x2="436" y2="66" stroke="#2ea043" stroke-width="1.6" opacity="0.7"/>
    <line x1="436" y1="66" x2="420" y2="66" stroke="#2ea043" stroke-width="1.6" opacity="0.7"/>
    <line x1="420" y1="66" x2="404" y2="66" stroke="#2ea043" stroke-width="1.6" opacity="0.7"/>
    <line x1="404" y1="66" x2="388" y2="66" stroke="#2ea043" stroke-width="1.6" opacity="0.7"/>
    <line x1="388" y1="66" x2="372" y2="66" stroke="#2ea043" stroke-width="1.6" opacity="0.7"/>
    <line x1="372" y1="66" x2="356" y2="66" stroke="#2ea043" stroke-width="1.6" opacity="0.7"/>
    <line x1="356" y1="66" x2="340" y2="66" stroke="#2ea043" stroke-width="1.6" opacity="0.7"/>
    <line x1="340" y1="66" x2="324" y2="66" stroke="#2ea043" stroke-width="1.6" opacity="0.7"/>
    <line x1="324" y1="66" x2="308" y2="66" stroke="#2ea043" stroke-width="1.6" opacity="0.7"/>
    <line x1="308" y1="66" x2="292" y2="66" stroke="#2ea043" stroke-width="1.6" opacity="0.7"/>
    <line x1="292" y1="66" x2="276" y2="66" stroke="#2ea043" stroke-width="1.6" opacity="0.7"/>
    <line x1="276" y1="66" x2="260" y2="66" stroke="#2ea043" stroke-width="1.6" opacity="0.7"/>
    <line x1="260" y1="66" x2="244" y2="66" stroke="#2ea043" stroke-width="1.6" opacity="0.7"/>
    <line x1="244" y1="66" x2="228" y2="66" stroke="#2ea043" stroke-width="1.6" opacity="0.7"/>
    <line x1="228" y1="66" x2="212" y2="66" stroke="#2ea043" stroke-width="1.6" opacity="0.7"/>
    <line x1="212" y1="66" x2="196" y2="66" stroke="#2ea043" stroke-width="1.6" opacity="0.7"/>
    <line x1="196" y1="66" x2="180" y2="66" stroke="#2ea043" stroke-width="1.6" opacity="0.7"/>
    <line x1="180" y1="66" x2="164" y2="66" stroke="#2ea043" stroke-width="1.6" opacity="0.7"/>
    <line x1="164" y1="66" x2="148" y2="66" stroke="#2ea043" stroke-width="1.6" opacity="0.7"/>
    <line x1="148" y1="66" x2="132" y2="66" stroke="#2ea043" stroke-width="1.6" opacity="0.7"/>
    <line x1="132" y1="66" x2="116" y2="66" stroke="#2ea043" stroke-width="1.6" opacity="0.7"/>
    <line x1="116" y1="66" x2="100" y2="66" stroke="#2ea043" stroke-width="1.6" opacity="0.7"/>
    <line x1="100" y1="66" x2="84" y2="66" stroke="#2ea043" stroke-width="1.6" opacity="0.7"/>
    <line x1="84" y1="66" x2="68" y2="66" stroke="#2ea043" stroke-width="1.6" opacity="0.7"/>
    <line x1="68" y1="66" x2="52" y2="66" stroke="#2ea043" stroke-width="1.6" opacity="0.7"/>
    <line x1="52" y1="66" x2="36" y2="66" stroke="#2ea043" stroke-width="1.6" opacity="0.7"/>
    <line x1="36" y1="66" x2="20" y2="66" stroke="#2ea043" stroke-width="1.6" opacity="0.7"/>
  </g>
  <g id="nodes">
    <circle cx="932" cy="66" r="3" fill="#3fb950" opacity="0.95"/>
    <circle cx="916" cy="66" r="3" fill="#3fb950" opacity="0.95"/>
    <circle cx="900" cy="66" r="4" fill="#e3b341" opacity="0.95"/>
    <circle cx="884" cy="66" r="3" fill="#3fb950" opacity="0.95"/>
    <circle cx="868" cy="66" r="3" fill="#3fb950" opacity="0.95"/>
    <circle cx="852" cy="66" r="3" fill="#3fb950" opacity="0.95"/>
    <circle cx="836" cy="66" r="3" fill="#3fb950" opacity="0.95"/>
    <circle cx="820" cy="66" r="3" fill="#3fb950" opacity="0.95"/>
    <circle cx="804" cy="66" r="3" fill="#3fb950" opacity="0.95"/>
    <circle cx="788" cy="66" r="3" fill="#3fb950" opacity="0.95"/>
    <circle cx="772" cy="66" r="3" fill="#3fb950" opacity="0.95"/>
    <circle cx="756" cy="66" r="3" fill="#3fb950" opacity="0.95"/>
    <circle cx="740" cy="66" r="3" fill="#3fb950" opacity="0.95"/>
    <circle cx="724" cy="66" r="3" fill="#3fb950" opacity="0.95"/>
    <circle cx="708" cy="66" r="3" fill="#3fb950" opacity="0.95"/>
    <circle cx="692" cy="66" r="3" fill="#3fb950" opacity="0.95"/>
    <circle cx="676" cy="66" r="3" fill="#3fb950" opacity="0.95"/>
    <circle cx="660" cy="66" r="3" fill="#3fb950" opacity="0.95"/>
    <circle cx="644" cy="66" r="3" fill="#3fb950" opacity="0.95"/>
    <circle cx="628" cy="66" r="3" fill="#3fb950" opacity="0.95"/>
    <circle cx="612" cy="66" r="3" fill="#3fb950" opacity="0.95"/>
    <circle cx="596" cy="66" r="3" fill="#3fb950" opacity="0.95"/>
    <circle cx="580" cy="66" r="4" fill="#a371f7" opacity="0.95"/>
    <circle cx="564" cy="86" r="3" fill="#3fb950" opacity="0.95"/>
    <circle cx="548" cy="66" r="4" fill="#f0883e" opacity="0.95"/>
    <circle cx="532" cy="66" r="3" fill="#3fb950" opacity="0.95"/>
    <circle cx="516" cy="66" r="3" fill="#3fb950" opacity="0.95"/>
    <circle cx="500" cy="66" r="3" fill="#3fb950" opacity="0.95"/>
    <circle cx="484" cy="66" r="3" fill="#3fb950" opacity="0.95"/>
    <circle cx="468" cy="66" r="3" fill="#3fb950" opacity="0.95"/>
    <circle cx="452" cy="66" r="3" fill="#3fb950" opacity="0.95"/>
    <circle cx="436" cy="66" r="3" fill="#3fb950" opacity="0.95"/>
    <circle cx="420" cy="66" r="3" fill="#3fb950" opacity="0.95"/>
    <circle cx="404" cy="66" r="3" fill="#3fb950" opacity="0.95"/>
    <circle cx="388" cy="66" r="3" fill="#3fb950" opacity="0.95"/>
    <circle cx="372" cy="66" r="3" fill="#3fb950" opacity="0.95"/>
    <circle cx="356" cy="66" r="3" fill="#3fb950" opacity="0.95"/>
    <circle cx="340" cy="66" r="3" fill="#3fb950" opacity="0.95"/>
    <circle cx="324" cy="66" r="3" fill="#3fb950" opacity="0.95"/>
    <circle cx="308" cy="66" r="3" fill="#3fb950" opacity="0.95"/>
    <circle cx="292" cy="66" r="3" fill="#3fb950" opacity="0.95"/>
    <circle cx="276" cy="66" r="3" fill="#3fb950" opacity="0.95"/>
    <circle cx="260" cy="66" r="3" fill="#3fb950" opacity="0.95"/>
    <circle cx="244" cy="66" r="3" fill="#3fb950" opacity="0.95"/>
    <circle cx="228" cy="66" r="3" fill="#3fb950" opacity="0.95"/>
    <circle cx="212" cy="66" r="3" fill="#3fb950" opacity="0.95"/>
    <circle cx="196" cy="66" r="3" fill="#3fb950" opacity="0.95"/>
    <circle cx="180" cy="66" r="3" fill="#3fb950" opacity="0.95"/>
    <circle cx="164" cy="66" r="3" fill="#3fb950" opacity="0.95"/>
    <circle cx="148" cy="66" r="3" fill="#3fb950" opacity="0.95"/>
    <circle cx="132" cy="66" r="3" fill="#3fb950" opacity="0.95"/>
    <circle cx="116" cy="66" r="3" fill="#3fb950" opacity="0.95"/>
    <circle cx="100" cy="66" r="3" fill="#3fb950" opacity="0.95"/>
    <circle cx="84" cy="66" r="3" fill="#3fb950" opacity="0.95"/>
    <circle cx="68" cy="66" r="3" fill="#3fb950" opacity="0.95"/>
    <circle cx="52" cy="66" r="3" fill="#3fb950" opacity="0.95"/>
    <circle cx="36" cy="66" r="3" fill="#3fb950" opacity="0.95"/>
    <circle cx="20" cy="66" r="3" fill="#3fb950" opacity="0.95"/>
  </g>
  <text x="944" y="125" text-anchor="end" font-family="sans-serif" font-size="9" fill="#6e7681">58 nodes &#183; 1 tags</text>
</svg>
